# xmcd
#
# Track frame offsets:
#	150
#	16930
#	36571
#	52780
#	68237
#	88801
#	106588
#	122599
#	139066
#	158754
#	175534
#	195175
#	211384
#	226841
#	247405
#	265192
#	281203
#	297670
#
# Disc length: 4231 seconds
#
# Revision: 1
# Processed by: cddbd v1.5.1PL2 Copyright (c) Steve Scherf et al.
# Submitted via: audiograbber 1.83.01
#
DISCID=01108512
DTITLE=Various Artist - Sinc0401
DYEAR=1900
DGENRE=Country
TTITLE0=Coffey, Kellie - Texas Plates
TTITLE1=Atkins, Rodney - Honesty (Write Me A List)
TTITLE2=Bentley, Dierks - My Last Name
TTITLE3=Rushlow - I Can't Be Your Friend
TTITLE4=Jackson, Alan - Remember When
TTITLE5=Paisley, Brad - Little Moments
TTITLE6=Jewell, Buddy - Sweet Southern Comfort
TTITLE7=Bates, Jeff - Rainbow Man
TTITLE8=McGraw, Tim - Watched The Wind Blow By
TTITLE9=Coffey, Kellie - Texas Plates (Vocals)
TTITLE10=Atkins, Rodney - Honesty (Write Me A List) (Vocals)
TTITLE11=Bentley, Dierks - My Last Name (Vocals)
TTITLE12=Rushlow - I Can't Be Your Friend (Vocals)
TTITLE13=Jackson, Alan - Remember When (Vocals)
TTITLE14=Paisley, Brad - Little Moments (Vocals)
TTITLE15=Jewell, Buddy - Sweet Southern Comfort (Vocals)
TTITLE16=Bates, Jeff - Rainbow Man (Vocals)
TTITLE17=McGraw, Tim - Watched The Wind Blow By (Vocals)
EXTD=
EXTT0=
EXTT1=
EXTT2=
EXTT3=
EXTT4=
EXTT5=
EXTT6=
EXTT7=
EXTT8=
EXTT9=
EXTT10=
EXTT11=
EXTT12=
EXTT13=
EXTT14=
EXTT15=
EXTT16=
EXTT17=
PLAYORDER=
